<svg width="150" height="150" viewBox="0 0 150 150" fill="none" xmlns="http://www.w3.org/2000/svg">
<g clip-path="url(#clip0_230_4538)">
<path d="M150 0H0V150H150V0Z" fill="white"/>
<path d="M12.9223 9.375H9.375V12.9223H12.9223V9.375Z" fill="black"/>
<path d="M16.4696 9.375H12.9223V12.9223H16.4696V9.375Z" fill="black"/>
<path d="M20.0169 9.375H16.4696V12.9223H20.0169V9.375Z" fill="black"/>
<path d="M23.5642 9.375H20.0169V12.9223H23.5642V9.375Z" fill="black"/>
<path d="M27.1115 9.375H23.5642V12.9223H27.1115V9.375Z" fill="black"/>
<path d="M30.6588 9.375H27.1115V12.9223H30.6588V9.375Z" fill="black"/>
<path d="M34.2061 9.375H30.6588V12.9223H34.2061V9.375Z" fill="black"/>
<path d="M41.3007 9.375H37.7534V12.9223H41.3007V9.375Z" fill="black"/>
<path d="M44.848 9.375H41.3007V12.9223H44.848V9.375Z" fill="black"/>
<path d="M62.5845 9.375H59.0372V12.9223H62.5845V9.375Z" fill="black"/>
<path d="M73.2264 9.375H69.6791V12.9223H73.2264V9.375Z" fill="black"/>
<path d="M80.321 9.375H76.7736V12.9223H80.321V9.375Z" fill="black"/>
<path d="M83.8682 9.375H80.321V12.9223H83.8682V9.375Z" fill="black"/>
<path d="M87.4155 9.375H83.8682V12.9223H87.4155V9.375Z" fill="black"/>
<path d="M90.9628 9.375H87.4155V12.9223H90.9628V9.375Z" fill="black"/>
<path d="M94.5101 9.375H90.9628V12.9223H94.5101V9.375Z" fill="black"/>
<path d="M101.605 9.375H98.0574V12.9223H101.605V9.375Z" fill="black"/>
<path d="M105.152 9.375H101.605V12.9223H105.152V9.375Z" fill="black"/>
<path d="M108.699 9.375H105.152V12.9223H108.699V9.375Z" fill="black"/>
<path d="M112.247 9.375H108.699V12.9223H112.247V9.375Z" fill="black"/>
<path d="M119.341 9.375H115.794V12.9223H119.341V9.375Z" fill="black"/>
<path d="M122.889 9.375H119.341V12.9223H122.889V9.375Z" fill="black"/>
<path d="M126.436 9.375H122.889V12.9223H126.436V9.375Z" fill="black"/>
<path d="M129.983 9.375H126.436V12.9223H129.983V9.375Z" fill="black"/>
<path d="M133.53 9.375H129.983V12.9223H133.53V9.375Z" fill="black"/>
<path d="M137.078 9.375H133.53V12.9223H137.078V9.375Z" fill="black"/>
<path d="M140.625 9.375H137.078V12.9223H140.625V9.375Z" fill="black"/>
<path d="M12.9223 12.9223H9.375V16.4696H12.9223V12.9223Z" fill="black"/>
<path d="M34.2061 12.9223H30.6588V16.4696H34.2061V12.9223Z" fill="black"/>
<path d="M44.848 12.9223H41.3007V16.4696H44.848V12.9223Z" fill="black"/>
<path d="M51.9426 12.9223H48.3953V16.4696H51.9426V12.9223Z" fill="black"/>
<path d="M62.5845 12.9223H59.0372V16.4696H62.5845V12.9223Z" fill="black"/>
<path d="M66.1318 12.9223H62.5845V16.4696H66.1318V12.9223Z" fill="black"/>
<path d="M87.4155 12.9223H83.8682V16.4696H87.4155V12.9223Z" fill="black"/>
<path d="M90.9628 12.9223H87.4155V16.4696H90.9628V12.9223Z" fill="black"/>
<path d="M98.0574 12.9223H94.5101V16.4696H98.0574V12.9223Z" fill="black"/>
<path d="M101.605 12.9223H98.0574V16.4696H101.605V12.9223Z" fill="black"/>
<path d="M105.152 12.9223H101.605V16.4696H105.152V12.9223Z" fill="black"/>
<path d="M119.341 12.9223H115.794V16.4696H119.341V12.9223Z" fill="black"/>
<path d="M140.625 12.9223H137.078V16.4696H140.625V12.9223Z" fill="black"/>
<path d="M12.9223 16.4696H9.375V20.0169H12.9223V16.4696Z" fill="black"/>
<path d="M20.0169 16.4696H16.4696V20.0169H20.0169V16.4696Z" fill="black"/>
<path d="M23.5642 16.4696H20.0169V20.0169H23.5642V16.4696Z" fill="black"/>
<path d="M27.1115 16.4696H23.5642V20.0169H27.1115V16.4696Z" fill="black"/>
<path d="M34.2061 16.4696H30.6588V20.0169H34.2061V16.4696Z" fill="black"/>
<path d="M51.9426 16.4696H48.3953V20.0169H51.9426V16.4696Z" fill="black"/>
<path d="M55.4899 16.4696H51.9426V20.0169H55.4899V16.4696Z" fill="black"/>
<path d="M69.6791 16.4696H66.1318L66.1318 20.0169H69.6791V16.4696Z" fill="black"/>
<path d="M76.7736 16.4696H73.2264V20.0169H76.7736V16.4696Z" fill="black"/>
<path d="M83.8682 16.4696H80.321V20.0169H83.8682V16.4696Z" fill="black"/>
<path d="M101.605 16.4696H98.0574V20.0169H101.605V16.4696Z" fill="black"/>
<path d="M105.152 16.4696H101.605V20.0169H105.152V16.4696Z" fill="black"/>
<path d="M108.699 16.4696H105.152V20.0169H108.699V16.4696Z" fill="black"/>
<path d="M112.247 16.4696H108.699V20.0169H112.247V16.4696Z" fill="black"/>
<path d="M119.341 16.4696H115.794V20.0169H119.341V16.4696Z" fill="black"/>
<path d="M126.436 16.4696H122.889V20.0169H126.436V16.4696Z" fill="black"/>
<path d="M129.983 16.4696H126.436V20.0169H129.983V16.4696Z" fill="black"/>
<path d="M133.53 16.4696H129.983V20.0169H133.53V16.4696Z" fill="black"/>
<path d="M140.625 16.4696H137.078V20.0169H140.625V16.4696Z" fill="black"/>
<path d="M12.9223 20.0169H9.375V23.5642H12.9223V20.0169Z" fill="black"/>
<path d="M20.0169 20.0169H16.4696V23.5642H20.0169V20.0169Z" fill="black"/>
<path d="M23.5642 20.0169H20.0169V23.5642H23.5642V20.0169Z" fill="black"/>
<path d="M27.1115 20.0169H23.5642V23.5642H27.1115V20.0169Z" fill="black"/>
<path d="M34.2061 20.0169H30.6588V23.5642H34.2061V20.0169Z" fill="black"/>
<path d="M41.3007 20.0169H37.7534V23.5642H41.3007V20.0169Z" fill="black"/>
<path d="M51.9426 20.0169H48.3953V23.5642H51.9426V20.0169Z" fill="black"/>
<path d="M59.0372 20.0169H55.4899L55.4899 23.5642H59.0372V20.0169Z" fill="black"/>
<path d="M62.5845 20.0169H59.0372V23.5642H62.5845V20.0169Z" fill="black"/>
<path d="M66.1318 20.0169H62.5845V23.5642H66.1318L66.1318 20.0169Z" fill="black"/>
<path d="M69.6791 20.0169H66.1318L66.1318 23.5642H69.6791V20.0169Z" fill="black"/>
<path d="M73.2264 20.0169H69.6791V23.5642H73.2264L73.2264 20.0169Z" fill="black"/>
<path d="M76.7736 20.0169H73.2264L73.2264 23.5642H76.7736V20.0169Z" fill="black"/>
<path d="M83.8682 20.0169H80.321V23.5642H83.8682V20.0169Z" fill="black"/>
<path d="M94.5101 20.0169H90.9628V23.5642H94.5101V20.0169Z" fill="black"/>
<path d="M101.605 20.0169H98.0574V23.5642H101.605V20.0169Z" fill="black"/>
<path d="M105.152 20.0169H101.605V23.5642H105.152V20.0169Z" fill="black"/>
<path d="M112.247 20.0169H108.699V23.5642H112.247V20.0169Z" fill="black"/>
<path d="M119.341 20.0169H115.794V23.5642H119.341V20.0169Z" fill="black"/>
<path d="M126.436 20.0169H122.889V23.5642H126.436V20.0169Z" fill="black"/>
<path d="M129.983 20.0169H126.436V23.5642H129.983V20.0169Z" fill="black"/>
<path d="M133.53 20.0169H129.983V23.5642H133.53V20.0169Z" fill="black"/>
<path d="M140.625 20.0169H137.078V23.5642H140.625V20.0169Z" fill="black"/>
<path d="M12.9223 23.5642H9.375V27.1115H12.9223V23.5642Z" fill="black"/>
<path d="M20.0169 23.5642H16.4696V27.1115H20.0169V23.5642Z" fill="black"/>
<path d="M23.5642 23.5642H20.0169V27.1115H23.5642V23.5642Z" fill="black"/>
<path d="M27.1115 23.5642H23.5642V27.1115H27.1115V23.5642Z" fill="black"/>
<path d="M34.2061 23.5642H30.6588V27.1115H34.2061V23.5642Z" fill="black"/>
<path d="M41.3007 23.5642H37.7534V27.1115H41.3007V23.5642Z" fill="black"/>
<path d="M44.848 23.5642H41.3007V27.1115H44.848V23.5642Z" fill="black"/>
<path d="M48.3953 23.5642H44.848V27.1115H48.3953V23.5642Z" fill="black"/>
<path d="M51.9426 23.5642H48.3953V27.1115H51.9426V23.5642Z" fill="black"/>
<path d="M62.5845 23.5642H59.0372V27.1115H62.5845V23.5642Z" fill="black"/>
<path d="M66.1318 23.5642H62.5845V27.1115H66.1318V23.5642Z" fill="black"/>
<path d="M73.2264 23.5642H69.6791L69.6791 27.1115H73.2264V23.5642Z" fill="black"/>
<path d="M80.321 23.5642H76.7736V27.1115H80.321V23.5642Z" fill="black"/>
<path d="M83.8682 23.5642H80.321V27.1115H83.8682V23.5642Z" fill="black"/>
<path d="M94.5101 23.5642H90.9628V27.1115H94.5101V23.5642Z" fill="black"/>
<path d="M98.0574 23.5642H94.5101V27.1115H98.0574V23.5642Z" fill="black"/>
<path d="M101.605 23.5642H98.0574V27.1115H101.605V23.5642Z" fill="black"/>
<path d="M108.699 23.5642H105.152V27.1115H108.699V23.5642Z" fill="black"/>
<path d="M112.247 23.5642H108.699V27.1115H112.247V23.5642Z" fill="black"/>
<path d="M119.341 23.5642H115.794V27.1115H119.341V23.5642Z" fill="black"/>
<path d="M126.436 23.5642H122.889V27.1115H126.436V23.5642Z" fill="black"/>
<path d="M129.983 23.5642H126.436V27.1115H129.983V23.5642Z" fill="black"/>
<path d="M133.53 23.5642H129.983V27.1115H133.53V23.5642Z" fill="black"/>
<path d="M140.625 23.5642H137.078V27.1115H140.625V23.5642Z" fill="black"/>
<path d="M12.9223 27.1115H9.375V30.6588H12.9223V27.1115Z" fill="black"/>
<path d="M34.2061 27.1115H30.6588V30.6588H34.2061V27.1115Z" fill="black"/>
<path d="M41.3007 27.1115H37.7534V30.6588H41.3007V27.1115Z" fill="black"/>
<path d="M48.3953 27.1115H44.848V30.6588H48.3953V27.1115Z" fill="black"/>
<path d="M73.2264 27.1115H69.6791V30.6588H73.2264V27.1115Z" fill="black"/>
<path d="M76.7736 27.1115H73.2264V30.6588H76.7736V27.1115Z" fill="black"/>
<path d="M83.8682 27.1115H80.321V30.6588H83.8682V27.1115Z" fill="black"/>
<path d="M87.4155 27.1115H83.8682V30.6588H87.4155V27.1115Z" fill="black"/>
<path d="M98.0574 27.1115H94.5101V30.6588H98.0574V27.1115Z" fill="black"/>
<path d="M101.605 27.1115H98.0574V30.6588H101.605V27.1115Z" fill="black"/>
<path d="M108.699 27.1115H105.152V30.6588H108.699V27.1115Z" fill="black"/>
<path d="M112.247 27.1115H108.699V30.6588H112.247V27.1115Z" fill="black"/>
<path d="M119.341 27.1115H115.794V30.6588H119.341V27.1115Z" fill="black"/>
<path d="M140.625 27.1115H137.078V30.6588H140.625V27.1115Z" fill="black"/>
<path d="M12.9223 30.6588H9.375V34.2061H12.9223V30.6588Z" fill="black"/>
<path d="M16.4696 30.6588H12.9223V34.2061H16.4696V30.6588Z" fill="black"/>
<path d="M20.0169 30.6588H16.4696V34.2061H20.0169V30.6588Z" fill="black"/>
<path d="M23.5642 30.6588H20.0169V34.2061H23.5642V30.6588Z" fill="black"/>
<path d="M27.1115 30.6588H23.5642V34.2061H27.1115V30.6588Z" fill="black"/>
<path d="M30.6588 30.6588H27.1115V34.2061H30.6588V30.6588Z" fill="black"/>
<path d="M34.2061 30.6588H30.6588V34.2061H34.2061V30.6588Z" fill="black"/>
<path d="M41.3007 30.6588H37.7534V34.2061H41.3007V30.6588Z" fill="black"/>
<path d="M48.3953 30.6588H44.848V34.2061H48.3953V30.6588Z" fill="black"/>
<path d="M55.4899 30.6588H51.9426V34.2061H55.4899V30.6588Z" fill="black"/>
<path d="M62.5845 30.6588H59.0372V34.2061H62.5845V30.6588Z" fill="black"/>
<path d="M69.6791 30.6588H66.1318V34.2061H69.6791L69.6791 30.6588Z" fill="black"/>
<path d="M76.7736 30.6588H73.2264L73.2264 34.2061H76.7736V30.6588Z" fill="black"/>
<path d="M83.8682 30.6588H80.321V34.2061H83.8682V30.6588Z" fill="black"/>
<path d="M90.9628 30.6588H87.4155V34.2061H90.9628V30.6588Z" fill="black"/>
<path d="M98.0574 30.6588H94.5101V34.2061H98.0574V30.6588Z" fill="black"/>
<path d="M105.152 30.6588H101.605V34.2061H105.152V30.6588Z" fill="black"/>
<path d="M112.247 30.6588H108.699V34.2061H112.247V30.6588Z" fill="black"/>
<path d="M119.341 30.6588H115.794V34.2061H119.341V30.6588Z" fill="black"/>
<path d="M122.889 30.6588H119.341V34.2061H122.889V30.6588Z" fill="black"/>
<path d="M126.436 30.6588H122.889V34.2061H126.436V30.6588Z" fill="black"/>
<path d="M129.983 30.6588H126.436V34.2061H129.983V30.6588Z" fill="black"/>
<path d="M133.53 30.6588H129.983V34.2061H133.53V30.6588Z" fill="black"/>
<path d="M137.078 30.6588H133.53V34.2061H137.078V30.6588Z" fill="black"/>
<path d="M140.625 30.6588H137.078V34.2061H140.625V30.6588Z" fill="black"/>
<path d="M41.3007 34.2061H37.7534V37.7534H41.3007V34.2061Z" fill="black"/>
<path d="M48.3953 34.2061H44.848V37.7534H48.3953V34.2061Z" fill="black"/>
<path d="M51.9426 34.2061H48.3953V37.7534H51.9426L51.9426 34.2061Z" fill="black"/>
<path d="M59.0372 34.2061H55.4899L55.4899 37.7534H59.0372V34.2061Z" fill="black"/>
<path d="M62.5845 34.2061H59.0372V37.7534H62.5845V34.2061Z" fill="black"/>
<path d="M76.7736 34.2061H73.2264V37.7534H76.7736V34.2061Z" fill="black"/>
<path d="M83.8682 34.2061H80.321V37.7534H83.8682V34.2061Z" fill="black"/>
<path d="M90.9628 34.2061H87.4155V37.7534H90.9628V34.2061Z" fill="black"/>
<path d="M94.5101 34.2061H90.9628V37.7534H94.5101V34.2061Z" fill="black"/>
<path d="M101.605 34.2061H98.0574V37.7534H101.605V34.2061Z" fill="black"/>
<path d="M105.152 34.2061H101.605V37.7534H105.152V34.2061Z" fill="black"/>
<path d="M112.247 34.2061H108.699V37.7534H112.247V34.2061Z" fill="black"/>
<path d="M12.9223 37.7534H9.375V41.3007H12.9223V37.7534Z" fill="black"/>
<path d="M16.4696 37.7534H12.9223V41.3007H16.4696V37.7534Z" fill="black"/>
<path d="M20.0169 37.7534H16.4696V41.3007H20.0169V37.7534Z" fill="black"/>
<path d="M27.1115 37.7534H23.5642V41.3007H27.1115V37.7534Z" fill="black"/>
<path d="M34.2061 37.7534H30.6588V41.3007H34.2061V37.7534Z" fill="black"/>
<path d="M41.3007 37.7534H37.7534V41.3007H41.3007V37.7534Z" fill="black"/>
<path d="M80.321 37.7534H76.7736V41.3007H80.321V37.7534Z" fill="black"/>
<path d="M90.9628 37.7534H87.4155V41.3007H90.9628V37.7534Z" fill="black"/>
<path d="M94.5101 37.7534H90.9628V41.3007H94.5101V37.7534Z" fill="black"/>
<path d="M101.605 37.7534H98.0574V41.3007H101.605V37.7534Z" fill="black"/>
<path d="M105.152 37.7534H101.605V41.3007H105.152V37.7534Z" fill="black"/>
<path d="M115.794 37.7534H112.247V41.3007H115.794V37.7534Z" fill="black"/>
<path d="M119.341 37.7534H115.794V41.3007H119.341V37.7534Z" fill="black"/>
<path d="M122.889 37.7534H119.341V41.3007H122.889V37.7534Z" fill="black"/>
<path d="M126.436 37.7534H122.889V41.3007H126.436V37.7534Z" fill="black"/>
<path d="M129.983 37.7534H126.436V41.3007H129.983V37.7534Z" fill="black"/>
<path d="M140.625 37.7534H137.078V41.3007H140.625V37.7534Z" fill="black"/>
<path d="M12.9223 41.3007H9.375V44.848H12.9223V41.3007Z" fill="black"/>
<path d="M16.4696 41.3007H12.9223V44.848H16.4696V41.3007Z" fill="black"/>
<path d="M20.0169 41.3007H16.4696V44.848H20.0169V41.3007Z" fill="black"/>
<path d="M23.5642 41.3007H20.0169V44.848H23.5642V41.3007Z" fill="black"/>
<path d="M27.1115 41.3007H23.5642V44.848H27.1115V41.3007Z" fill="black"/>
<path d="M30.6588 41.3007H27.1115V44.848H30.6588V41.3007Z" fill="black"/>
<path d="M41.3007 41.3007H37.7534V44.848H41.3007V41.3007Z" fill="black"/>
<path d="M44.848 41.3007H41.3007V44.848H44.848V41.3007Z" fill="black"/>
<path d="M48.3953 41.3007H44.848V44.848H48.3953V41.3007Z" fill="black"/>
<path d="M66.1318 41.3007H62.5845V44.848H66.1318V41.3007Z" fill="black"/>
<path d="M80.321 41.3007H76.7736V44.848H80.321V41.3007Z" fill="black"/>
<path d="M94.5101 41.3007H90.9628V44.848H94.5101V41.3007Z" fill="black"/>
<path d="M101.605 41.3007H98.0574V44.848H101.605V41.3007Z" fill="black"/>
<path d="M112.247 41.3007H108.699V44.848H112.247V41.3007Z" fill="black"/>
<path d="M119.341 41.3007H115.794V44.848H119.341V41.3007Z" fill="black"/>
<path d="M122.889 41.3007H119.341V44.848H122.889V41.3007Z" fill="black"/>
<path d="M133.53 41.3007H129.983V44.848H133.53V41.3007Z" fill="black"/>
<path d="M140.625 41.3007H137.078V44.848H140.625V41.3007Z" fill="black"/>
<path d="M16.4696 44.848H12.9223V48.3953H16.4696V44.848Z" fill="black"/>
<path d="M23.5642 44.848H20.0169V48.3953H23.5642V44.848Z" fill="black"/>
<path d="M27.1115 44.848H23.5642V48.3953H27.1115V44.848Z" fill="black"/>
<path d="M30.6588 44.848H27.1115V48.3953H30.6588V44.848Z" fill="black"/>
<path d="M34.2061 44.848H30.6588V48.3953H34.2061V44.848Z" fill="black"/>
<path d="M37.7534 44.848H34.2061V48.3953H37.7534V44.848Z" fill="black"/>
<path d="M41.3007 44.848H37.7534V48.3953H41.3007V44.848Z" fill="black"/>
<path d="M51.9426 44.848H48.3953V48.3953H51.9426V44.848Z" fill="black"/>
<path d="M66.1318 44.848H62.5845V48.3953H66.1318V44.848Z" fill="black"/>
<path d="M76.7736 44.848H73.2264V48.3953H76.7736V44.848Z" fill="black"/>
<path d="M105.152 44.848H101.605V48.3953H105.152V44.848Z" fill="black"/>
<path d="M115.794 44.848H112.247V48.3953H115.794V44.848Z" fill="black"/>
<path d="M129.983 44.848H126.436V48.3953H129.983V44.848Z" fill="black"/>
<path d="M133.53 44.848H129.983V48.3953H133.53V44.848Z" fill="black"/>
<path d="M12.9223 48.3953H9.375V51.9426H12.9223V48.3953Z" fill="black"/>
<path d="M23.5642 48.3953H20.0169V51.9426H23.5642V48.3953Z" fill="black"/>
<path d="M27.1115 48.3953H23.5642V51.9426H27.1115V48.3953Z" fill="black"/>
<path d="M30.6588 48.3953H27.1115V51.9426H30.6588V48.3953Z" fill="black"/>
<path d="M37.7534 48.3953H34.2061V51.9426H37.7534V48.3953Z" fill="black"/>
<path d="M44.848 48.3953H41.3007V51.9426H44.848V48.3953Z" fill="black"/>
<path d="M48.3953 48.3953H44.848V51.9426H48.3953V48.3953Z" fill="black"/>
<path d="M51.9426 48.3953H48.3953V51.9426H51.9426V48.3953Z" fill="black"/>
<path d="M62.5845 48.3953H59.0372V51.9426H62.5845L62.5845 48.3953Z" fill="black"/>
<path d="M69.6791 48.3953H66.1318L66.1318 51.9426H69.6791V48.3953Z" fill="black"/>
<path d="M80.321 48.3953H76.7736V51.9426H80.321V48.3953Z" fill="black"/>
<path d="M83.8682 48.3953H80.321V51.9426H83.8682V48.3953Z" fill="black"/>
<path d="M94.5101 48.3953H90.9628V51.9426H94.5101V48.3953Z" fill="black"/>
<path d="M98.0574 48.3953H94.5101V51.9426H98.0574V48.3953Z" fill="black"/>
<path d="M101.605 48.3953H98.0574V51.9426H101.605V48.3953Z" fill="black"/>
<path d="M108.699 48.3953H105.152V51.9426H108.699V48.3953Z" fill="black"/>
<path d="M126.436 48.3953H122.889V51.9426H126.436V48.3953Z" fill="black"/>
<path d="M129.983 48.3953H126.436V51.9426H129.983V48.3953Z" fill="black"/>
<path d="M137.078 48.3953H133.53V51.9426H137.078V48.3953Z" fill="black"/>
<path d="M16.4696 51.9426L12.9223 51.9426V55.4899H16.4696V51.9426Z" fill="black"/>
<path d="M27.1115 51.9426H23.5642V55.4899H27.1115V51.9426Z" fill="black"/>
<path d="M34.2061 51.9426H30.6588V55.4899H34.2061V51.9426Z" fill="black"/>
<path d="M41.3007 51.9426H37.7534V55.4899H41.3007V51.9426Z" fill="black"/>
<path d="M44.848 51.9426H41.3007V55.4899H44.848V51.9426Z" fill="black"/>
<path d="M48.3953 51.9426H44.848V55.4899H48.3953V51.9426Z" fill="black"/>
<path d="M51.9426 51.9426H48.3953V55.4899H51.9426V51.9426Z" fill="black"/>
<path d="M55.4899 51.9426L51.9426 51.9426V55.4899H55.4899V51.9426Z" fill="black"/>
<path d="M76.7736 51.9426L73.2264 51.9426V55.4899H76.7736V51.9426Z" fill="black"/>
<path d="M83.8682 51.9426H80.321V55.4899H83.8682V51.9426Z" fill="black"/>
<path d="M87.4155 51.9426L83.8682 51.9426V55.4899H87.4155V51.9426Z" fill="black"/>
<path d="M98.0574 51.9426H94.5101V55.4899H98.0574V51.9426Z" fill="black"/>
<path d="M108.699 51.9426H105.152V55.4899H108.699V51.9426Z" fill="black"/>
<path d="M115.794 51.9426H112.247V55.4899H115.794V51.9426Z" fill="black"/>
<path d="M122.889 51.9426L119.341 51.9426V55.4899H122.889V51.9426Z" fill="black"/>
<path d="M126.436 51.9426H122.889V55.4899H126.436V51.9426Z" fill="black"/>
<path d="M133.53 51.9426H129.983V55.4899H133.53V51.9426Z" fill="black"/>
<path d="M137.078 51.9426H133.53V55.4899H137.078V51.9426Z" fill="black"/>
<path d="M140.625 51.9426L137.078 51.9426V55.4899H140.625V51.9426Z" fill="black"/>
<path d="M12.9223 55.4899L9.375 55.4899V59.0372H12.9223V55.4899Z" fill="black"/>
<path d="M16.4696 55.4899H12.9223V59.0372H16.4696V55.4899Z" fill="black"/>
<path d="M20.0169 55.4899L16.4696 55.4899V59.0372H20.0169V55.4899Z" fill="black"/>
<path d="M30.6588 55.4899H27.1115V59.0372H30.6588V55.4899Z" fill="black"/>
<path d="M37.7534 55.4899H34.2061V59.0372H37.7534V55.4899Z" fill="black"/>
<path d="M41.3007 55.4899H37.7534V59.0372H41.3007V55.4899Z" fill="black"/>
<path d="M44.848 55.4899H41.3007V59.0372H44.848V55.4899Z" fill="black"/>
<path d="M48.3953 55.4899H44.848V59.0372H48.3953V55.4899Z" fill="black"/>
<path d="M51.9426 55.4899H48.3953V59.0372H51.9426V55.4899Z" fill="black"/>
<path d="M55.4899 55.4899H51.9426V59.0372H55.4899V55.4899Z" fill="black"/>
<path d="M69.6791 55.4899H66.1318V59.0372H69.6791V55.4899Z" fill="black"/>
<path d="M73.2264 55.4899L69.6791 55.4899V59.0372H73.2264L73.2264 55.4899Z" fill="black"/>
<path d="M80.321 55.4899H76.7736V59.0372H80.321V55.4899Z" fill="black"/>
<path d="M94.5101 55.4899L90.9628 55.4899V59.0372H94.5101V55.4899Z" fill="black"/>
<path d="M98.0574 55.4899H94.5101V59.0372H98.0574V55.4899Z" fill="black"/>
<path d="M101.605 55.4899L98.0574 55.4899V59.0372H101.605V55.4899Z" fill="black"/>
<path d="M105.152 55.4899L101.605 55.4899V59.0372H105.152V55.4899Z" fill="black"/>
<path d="M115.794 55.4899H112.247V59.0372H115.794V55.4899Z" fill="black"/>
<path d="M122.889 55.4899H119.341V59.0372H122.889V55.4899Z" fill="black"/>
<path d="M133.53 55.4899H129.983V59.0372H133.53V55.4899Z" fill="black"/>
<path d="M20.0169 59.0372H16.4696V62.5845H20.0169V59.0372Z" fill="black"/>
<path d="M23.5642 59.0372H20.0169V62.5845H23.5642V59.0372Z" fill="black"/>
<path d="M27.1115 59.0372H23.5642V62.5845H27.1115V59.0372Z" fill="black"/>
<path d="M34.2061 59.0372H30.6588V62.5845H34.2061V59.0372Z" fill="black"/>
<path d="M37.7534 59.0372H34.2061V62.5845H37.7534V59.0372Z" fill="black"/>
<path d="M41.3007 59.0372H37.7534V62.5845H41.3007V59.0372Z" fill="black"/>
<path d="M44.848 59.0372H41.3007V62.5845H44.848V59.0372Z" fill="black"/>
<path d="M48.3953 59.0372H44.848V62.5845H48.3953V59.0372Z" fill="black"/>
<path d="M55.4899 59.0372H51.9426L51.9426 62.5845H55.4899V59.0372Z" fill="black"/>
<path d="M66.1318 59.0372H62.5845V62.5845H66.1318L66.1318 59.0372Z" fill="black"/>
<path d="M69.6791 59.0372H66.1318L66.1318 62.5845H69.6791V59.0372Z" fill="black"/>
<path d="M80.321 59.0372H76.7736V62.5845H80.321V59.0372Z" fill="black"/>
<path d="M87.4155 59.0372H83.8682V62.5845H87.4155V59.0372Z" fill="black"/>
<path d="M90.9628 59.0372H87.4155V62.5845H90.9628V59.0372Z" fill="black"/>
<path d="M98.0574 59.0372H94.5101V62.5845H98.0574V59.0372Z" fill="black"/>
<path d="M105.152 59.0372H101.605V62.5845H105.152V59.0372Z" fill="black"/>
<path d="M108.699 59.0372H105.152V62.5845H108.699V59.0372Z" fill="black"/>
<path d="M112.247 59.0372H108.699V62.5845H112.247V59.0372Z" fill="black"/>
<path d="M115.794 59.0372H112.247V62.5845H115.794V59.0372Z" fill="black"/>
<path d="M129.983 59.0372H126.436V62.5845H129.983V59.0372Z" fill="black"/>
<path d="M137.078 59.0372H133.53V62.5845H137.078V59.0372Z" fill="black"/>
<path d="M12.9223 62.5845H9.375V66.1318H12.9223V62.5845Z" fill="black"/>
<path d="M20.0169 62.5845H16.4696V66.1318H20.0169V62.5845Z" fill="black"/>
<path d="M23.5642 62.5845H20.0169V66.1318H23.5642V62.5845Z" fill="black"/>
<path d="M30.6588 62.5845H27.1115V66.1318H30.6588V62.5845Z" fill="black"/>
<path d="M41.3007 62.5845H37.7534V66.1318H41.3007V62.5845Z" fill="black"/>
<path d="M48.3953 62.5845H44.848V66.1318H48.3953V62.5845Z" fill="black"/>
<path d="M55.4899 62.5845H51.9426V66.1318H55.4899V62.5845Z" fill="black"/>
<path d="M59.0372 62.5845L55.4899 62.5845V66.1318H59.0372V62.5845Z" fill="black"/>
<path d="M62.5845 62.5845L59.0372 62.5845V66.1318H62.5845L62.5845 62.5845Z" fill="black"/>
<path d="M69.6791 62.5845H66.1318L66.1318 66.1318H69.6791V62.5845Z" fill="black"/>
<path d="M80.321 62.5845H76.7736V66.1318H80.321V62.5845Z" fill="black"/>
<path d="M87.4155 62.5845H83.8682V66.1318H87.4155V62.5845Z" fill="black"/>
<path d="M90.9628 62.5845H87.4155V66.1318H90.9628V62.5845Z" fill="black"/>
<path d="M94.5101 62.5845H90.9628V66.1318H94.5101V62.5845Z" fill="black"/>
<path d="M105.152 62.5845H101.605V66.1318H105.152V62.5845Z" fill="black"/>
<path d="M112.247 62.5845H108.699V66.1318H112.247V62.5845Z" fill="black"/>
<path d="M115.794 62.5845H112.247V66.1318H115.794V62.5845Z" fill="black"/>
<path d="M119.341 62.5845L115.794 62.5845V66.1318H119.341V62.5845Z" fill="black"/>
<path d="M122.889 62.5845H119.341V66.1318H122.889V62.5845Z" fill="black"/>
<path d="M137.078 62.5845H133.53V66.1318H137.078V62.5845Z" fill="black"/>
<path d="M20.0169 66.1318H16.4696V69.6791H20.0169V66.1318Z" fill="black"/>
<path d="M23.5642 66.1318H20.0169V69.6791H23.5642V66.1318Z" fill="black"/>
<path d="M34.2061 66.1318L30.6588 66.1318V69.6791H34.2061V66.1318Z" fill="black"/>
<path d="M44.848 66.1318H41.3007V69.6791H44.848V66.1318Z" fill="black"/>
<path d="M48.3953 66.1318H44.848V69.6791H48.3953V66.1318Z" fill="black"/>
<path d="M51.9426 66.1318H48.3953V69.6791H51.9426L51.9426 66.1318Z" fill="black"/>
<path d="M55.4899 66.1318H51.9426L51.9426 69.6791H55.4899V66.1318Z" fill="black"/>
<path d="M59.0372 66.1318H55.4899V69.6791H59.0372V66.1318Z" fill="black"/>
<path d="M62.5845 66.1318H59.0372V69.6791H62.5845V66.1318Z" fill="black"/>
<path d="M76.7736 66.1318L73.2264 66.1318V69.6791H76.7736V66.1318Z" fill="black"/>
<path d="M80.321 66.1318H76.7736V69.6791H80.321V66.1318Z" fill="black"/>
<path d="M90.9628 66.1318H87.4155V69.6791H90.9628V66.1318Z" fill="black"/>
<path d="M108.699 66.1318H105.152V69.6791H108.699V66.1318Z" fill="black"/>
<path d="M122.889 66.1318H119.341V69.6791H122.889V66.1318Z" fill="black"/>
<path d="M126.436 66.1318L122.889 66.1318V69.6791H126.436V66.1318Z" fill="black"/>
<path d="M140.625 66.1318L137.078 66.1318V69.6791H140.625V66.1318Z" fill="black"/>
<path d="M23.5642 69.6791H20.0169V73.2264H23.5642V69.6791Z" fill="black"/>
<path d="M37.7534 69.6791L34.2061 69.6791V73.2264H37.7534V69.6791Z" fill="black"/>
<path d="M44.848 69.6791H41.3007V73.2264H44.848V69.6791Z" fill="black"/>
<path d="M48.3953 69.6791H44.848V73.2264H48.3953V69.6791Z" fill="black"/>
<path d="M51.9426 69.6791H48.3953V73.2264H51.9426V69.6791Z" fill="black"/>
<path d="M69.6791 69.6791H66.1318V73.2264H69.6791V69.6791Z" fill="black"/>
<path d="M73.2264 69.6791L69.6791 69.6791V73.2264H73.2264L73.2264 69.6791Z" fill="black"/>
<path d="M76.7736 69.6791H73.2264L73.2264 73.2264H76.7736V69.6791Z" fill="black"/>
<path d="M83.8682 69.6791L80.321 69.6791V73.2264H83.8682V69.6791Z" fill="black"/>
<path d="M87.4155 69.6791L83.8682 69.6791V73.2264H87.4155V69.6791Z" fill="black"/>
<path d="M98.0574 69.6791H94.5101V73.2264H98.0574V69.6791Z" fill="black"/>
<path d="M105.152 69.6791L101.605 69.6791V73.2264H105.152V69.6791Z" fill="black"/>
<path d="M115.794 69.6791H112.247V73.2264H115.794V69.6791Z" fill="black"/>
<path d="M119.341 69.6791L115.794 69.6791V73.2264H119.341V69.6791Z" fill="black"/>
<path d="M137.078 69.6791L133.53 69.6791V73.2264H137.078V69.6791Z" fill="black"/>
<path d="M23.5642 73.2264H20.0169V76.7736H23.5642V73.2264Z" fill="black"/>
<path d="M27.1115 73.2264L23.5642 73.2264V76.7736H27.1115V73.2264Z" fill="black"/>
<path d="M34.2061 73.2264L30.6588 73.2264V76.7736H34.2061V73.2264Z" fill="black"/>
<path d="M37.7534 73.2264H34.2061V76.7736H37.7534V73.2264Z" fill="black"/>
<path d="M44.848 73.2264H41.3007V76.7736H44.848V73.2264Z" fill="black"/>
<path d="M59.0372 73.2264H55.4899V76.7736H59.0372V73.2264Z" fill="black"/>
<path d="M62.5845 73.2264H59.0372V76.7736H62.5845V73.2264Z" fill="black"/>
<path d="M69.6791 73.2264H66.1318V76.7736H69.6791V73.2264Z" fill="black"/>
<path d="M94.5101 73.2264L90.9628 73.2264V76.7736H94.5101V73.2264Z" fill="black"/>
<path d="M101.605 73.2264H98.0574V76.7736H101.605V73.2264Z" fill="black"/>
<path d="M105.152 73.2264H101.605V76.7736H105.152V73.2264Z" fill="black"/>
<path d="M115.794 73.2264H112.247V76.7736H115.794V73.2264Z" fill="black"/>
<path d="M119.341 73.2264H115.794V76.7736H119.341V73.2264Z" fill="black"/>
<path d="M126.436 73.2264H122.889V76.7736H126.436V73.2264Z" fill="black"/>
<path d="M133.53 73.2264L129.983 73.2264V76.7736H133.53V73.2264Z" fill="black"/>
<path d="M12.9223 76.7736H9.375V80.321H12.9223V76.7736Z" fill="black"/>
<path d="M16.4696 76.7736H12.9223V80.321H16.4696V76.7736Z" fill="black"/>
<path d="M20.0169 76.7736H16.4696V80.321H20.0169V76.7736Z" fill="black"/>
<path d="M27.1115 76.7736H23.5642V80.321H27.1115V76.7736Z" fill="black"/>
<path d="M37.7534 76.7736H34.2061V80.321H37.7534V76.7736Z" fill="black"/>
<path d="M41.3007 76.7736H37.7534V80.321H41.3007V76.7736Z" fill="black"/>
<path d="M48.3953 76.7736H44.848V80.321H48.3953V76.7736Z" fill="black"/>
<path d="M51.9426 76.7736H48.3953V80.321H51.9426V76.7736Z" fill="black"/>
<path d="M62.5845 76.7736H59.0372V80.321H62.5845V76.7736Z" fill="black"/>
<path d="M76.7736 76.7736H73.2264V80.321H76.7736V76.7736Z" fill="black"/>
<path d="M80.321 76.7736H76.7736V80.321H80.321V76.7736Z" fill="black"/>
<path d="M83.8682 76.7736H80.321V80.321H83.8682V76.7736Z" fill="black"/>
<path d="M87.4155 76.7736H83.8682V80.321H87.4155V76.7736Z" fill="black"/>
<path d="M94.5101 76.7736H90.9628V80.321H94.5101V76.7736Z" fill="black"/>
<path d="M98.0574 76.7736H94.5101V80.321H98.0574V76.7736Z" fill="black"/>
<path d="M101.605 76.7736H98.0574V80.321H101.605V76.7736Z" fill="black"/>
<path d="M108.699 76.7736H105.152V80.321H108.699V76.7736Z" fill="black"/>
<path d="M112.247 76.7736H108.699V80.321H112.247V76.7736Z" fill="black"/>
<path d="M115.794 76.7736H112.247V80.321H115.794V76.7736Z" fill="black"/>
<path d="M119.341 76.7736H115.794V80.321H119.341V76.7736Z" fill="black"/>
<path d="M140.625 76.7736H137.078V80.321H140.625V76.7736Z" fill="black"/>
<path d="M12.9223 80.321H9.375V83.8682H12.9223V80.321Z" fill="black"/>
<path d="M23.5642 80.321H20.0169V83.8682H23.5642V80.321Z" fill="black"/>
<path d="M30.6588 80.321H27.1115V83.8682H30.6588V80.321Z" fill="black"/>
<path d="M34.2061 80.321H30.6588V83.8682H34.2061V80.321Z" fill="black"/>
<path d="M37.7534 80.321H34.2061V83.8682H37.7534V80.321Z" fill="black"/>
<path d="M48.3953 80.321H44.848V83.8682H48.3953V80.321Z" fill="black"/>
<path d="M51.9426 80.321H48.3953V83.8682H51.9426V80.321Z" fill="black"/>
<path d="M55.4899 80.321H51.9426V83.8682H55.4899V80.321Z" fill="black"/>
<path d="M62.5845 80.321H59.0372V83.8682H62.5845V80.321Z" fill="black"/>
<path d="M80.321 80.321H76.7736V83.8682H80.321V80.321Z" fill="black"/>
<path d="M90.9628 80.321H87.4155V83.8682H90.9628V80.321Z" fill="black"/>
<path d="M98.0574 80.321H94.5101V83.8682H98.0574V80.321Z" fill="black"/>
<path d="M112.247 80.321H108.699V83.8682H112.247V80.321Z" fill="black"/>
<path d="M115.794 80.321H112.247V83.8682H115.794V80.321Z" fill="black"/>
<path d="M126.436 80.321H122.889V83.8682H126.436V80.321Z" fill="black"/>
<path d="M129.983 80.321H126.436V83.8682H129.983V80.321Z" fill="black"/>
<path d="M140.625 80.321H137.078V83.8682H140.625V80.321Z" fill="black"/>
<path d="M12.9223 83.8682H9.375V87.4155H12.9223V83.8682Z" fill="black"/>
<path d="M16.4696 83.8682H12.9223V87.4155H16.4696V83.8682Z" fill="black"/>
<path d="M20.0169 83.8682H16.4696V87.4155H20.0169V83.8682Z" fill="black"/>
<path d="M23.5642 83.8682H20.0169V87.4155H23.5642V83.8682Z" fill="black"/>
<path d="M27.1115 83.8682H23.5642V87.4155H27.1115V83.8682Z" fill="black"/>
<path d="M41.3007 83.8682H37.7534V87.4155H41.3007V83.8682Z" fill="black"/>
<path d="M44.848 83.8682H41.3007V87.4155H44.848V83.8682Z" fill="black"/>
<path d="M59.0372 83.8682H55.4899L55.4899 87.4155H59.0372V83.8682Z" fill="black"/>
<path d="M66.1318 83.8682H62.5845L62.5845 87.4155H66.1318V83.8682Z" fill="black"/>
<path d="M69.6791 83.8682H66.1318V87.4155H69.6791V83.8682Z" fill="black"/>
<path d="M76.7736 83.8682H73.2264V87.4155H76.7736V83.8682Z" fill="black"/>
<path d="M90.9628 83.8682H87.4155V87.4155H90.9628V83.8682Z" fill="black"/>
<path d="M98.0574 83.8682H94.5101V87.4155H98.0574V83.8682Z" fill="black"/>
<path d="M105.152 83.8682H101.605V87.4155H105.152V83.8682Z" fill="black"/>
<path d="M115.794 83.8682H112.247V87.4155H115.794V83.8682Z" fill="black"/>
<path d="M122.889 83.8682H119.341V87.4155H122.889V83.8682Z" fill="black"/>
<path d="M126.436 83.8682H122.889V87.4155H126.436V83.8682Z" fill="black"/>
<path d="M133.53 83.8682H129.983V87.4155H133.53V83.8682Z" fill="black"/>
<path d="M12.9223 87.4155H9.375V90.9628H12.9223V87.4155Z" fill="black"/>
<path d="M23.5642 87.4155H20.0169V90.9628H23.5642V87.4155Z" fill="black"/>
<path d="M30.6588 87.4155H27.1115V90.9628H30.6588V87.4155Z" fill="black"/>
<path d="M34.2061 87.4155H30.6588V90.9628H34.2061V87.4155Z" fill="black"/>
<path d="M37.7534 87.4155H34.2061V90.9628H37.7534V87.4155Z" fill="black"/>
<path d="M41.3007 87.4155H37.7534V90.9628H41.3007V87.4155Z" fill="black"/>
<path d="M48.3953 87.4155H44.848V90.9628H48.3953V87.4155Z" fill="black"/>
<path d="M66.1318 87.4155H62.5845V90.9628H66.1318V87.4155Z" fill="black"/>
<path d="M69.6791 87.4155H66.1318V90.9628H69.6791V87.4155Z" fill="black"/>
<path d="M73.2264 87.4155H69.6791V90.9628H73.2264L73.2264 87.4155Z" fill="black"/>
<path d="M76.7736 87.4155H73.2264L73.2264 90.9628H76.7736V87.4155Z" fill="black"/>
<path d="M80.321 87.4155H76.7736V90.9628H80.321V87.4155Z" fill="black"/>
<path d="M98.0574 87.4155H94.5101V90.9628H98.0574V87.4155Z" fill="black"/>
<path d="M101.605 87.4155H98.0574V90.9628H101.605V87.4155Z" fill="black"/>
<path d="M105.152 87.4155H101.605V90.9628H105.152V87.4155Z" fill="black"/>
<path d="M108.699 87.4155H105.152V90.9628H108.699V87.4155Z" fill="black"/>
<path d="M112.247 87.4155H108.699V90.9628H112.247V87.4155Z" fill="black"/>
<path d="M129.983 87.4155H126.436V90.9628H129.983V87.4155Z" fill="black"/>
<path d="M137.078 87.4155H133.53V90.9628H137.078V87.4155Z" fill="black"/>
<path d="M140.625 87.4155H137.078V90.9628H140.625V87.4155Z" fill="black"/>
<path d="M12.9223 90.9628H9.375V94.5101H12.9223V90.9628Z" fill="black"/>
<path d="M16.4696 90.9628H12.9223V94.5101H16.4696V90.9628Z" fill="black"/>
<path d="M20.0169 90.9628H16.4696V94.5101H20.0169V90.9628Z" fill="black"/>
<path d="M23.5642 90.9628H20.0169V94.5101H23.5642V90.9628Z" fill="black"/>
<path d="M30.6588 90.9628H27.1115V94.5101H30.6588V90.9628Z" fill="black"/>
<path d="M48.3953 90.9628H44.848V94.5101H48.3953V90.9628Z" fill="black"/>
<path d="M51.9426 90.9628H48.3953V94.5101H51.9426V90.9628Z" fill="black"/>
<path d="M55.4899 90.9628H51.9426V94.5101H55.4899V90.9628Z" fill="black"/>
<path d="M59.0372 90.9628H55.4899V94.5101H59.0372V90.9628Z" fill="black"/>
<path d="M66.1318 90.9628H62.5845V94.5101H66.1318V90.9628Z" fill="black"/>
<path d="M73.2264 90.9628H69.6791L69.6791 94.5101H73.2264V90.9628Z" fill="black"/>
<path d="M80.321 90.9628H76.7736V94.5101H80.321V90.9628Z" fill="black"/>
<path d="M83.8682 90.9628H80.321V94.5101H83.8682V90.9628Z" fill="black"/>
<path d="M87.4155 90.9628H83.8682V94.5101H87.4155V90.9628Z" fill="black"/>
<path d="M90.9628 90.9628H87.4155V94.5101H90.9628V90.9628Z" fill="black"/>
<path d="M94.5101 90.9628H90.9628V94.5101H94.5101V90.9628Z" fill="black"/>
<path d="M112.247 90.9628H108.699V94.5101H112.247V90.9628Z" fill="black"/>
<path d="M119.341 90.9628H115.794V94.5101H119.341V90.9628Z" fill="black"/>
<path d="M122.889 90.9628H119.341V94.5101H122.889V90.9628Z" fill="black"/>
<path d="M126.436 90.9628H122.889V94.5101H126.436V90.9628Z" fill="black"/>
<path d="M129.983 90.9628H126.436V94.5101H129.983V90.9628Z" fill="black"/>
<path d="M133.53 90.9628H129.983V94.5101H133.53V90.9628Z" fill="black"/>
<path d="M137.078 90.9628H133.53V94.5101H137.078V90.9628Z" fill="black"/>
<path d="M16.4696 94.5101H12.9223V98.0574H16.4696V94.5101Z" fill="black"/>
<path d="M34.2061 94.5101H30.6588V98.0574H34.2061V94.5101Z" fill="black"/>
<path d="M44.848 94.5101H41.3007V98.0574H44.848V94.5101Z" fill="black"/>
<path d="M51.9426 94.5101H48.3953V98.0574H51.9426V94.5101Z" fill="black"/>
<path d="M69.6791 94.5101H66.1318L66.1318 98.0574H69.6791L69.6791 94.5101Z" fill="black"/>
<path d="M76.7736 94.5101H73.2264L73.2264 98.0574H76.7736V94.5101Z" fill="black"/>
<path d="M83.8682 94.5101H80.321V98.0574H83.8682V94.5101Z" fill="black"/>
<path d="M87.4155 94.5101H83.8682V98.0574H87.4155V94.5101Z" fill="black"/>
<path d="M98.0574 94.5101H94.5101V98.0574H98.0574V94.5101Z" fill="black"/>
<path d="M101.605 94.5101H98.0574V98.0574H101.605V94.5101Z" fill="black"/>
<path d="M105.152 94.5101H101.605V98.0574H105.152V94.5101Z" fill="black"/>
<path d="M112.247 94.5101H108.699V98.0574H112.247V94.5101Z" fill="black"/>
<path d="M129.983 94.5101H126.436V98.0574H129.983V94.5101Z" fill="black"/>
<path d="M133.53 94.5101H129.983V98.0574H133.53V94.5101Z" fill="black"/>
<path d="M137.078 94.5101H133.53V98.0574H137.078V94.5101Z" fill="black"/>
<path d="M140.625 94.5101H137.078V98.0574H140.625V94.5101Z" fill="black"/>
<path d="M12.9223 98.0574H9.375V101.605H12.9223V98.0574Z" fill="black"/>
<path d="M16.4696 98.0574H12.9223V101.605H16.4696V98.0574Z" fill="black"/>
<path d="M20.0169 98.0574H16.4696V101.605H20.0169V98.0574Z" fill="black"/>
<path d="M23.5642 98.0574H20.0169V101.605H23.5642V98.0574Z" fill="black"/>
<path d="M37.7534 98.0574H34.2061V101.605H37.7534V98.0574Z" fill="black"/>
<path d="M44.848 98.0574H41.3007V101.605H44.848V98.0574Z" fill="black"/>
<path d="M59.0372 98.0574H55.4899V101.605H59.0372V98.0574Z" fill="black"/>
<path d="M62.5845 98.0574H59.0372V101.605H62.5845V98.0574Z" fill="black"/>
<path d="M69.6791 98.0574H66.1318V101.605H69.6791V98.0574Z" fill="black"/>
<path d="M76.7736 98.0574H73.2264V101.605H76.7736V98.0574Z" fill="black"/>
<path d="M80.321 98.0574H76.7736V101.605H80.321V98.0574Z" fill="black"/>
<path d="M112.247 98.0574H108.699V101.605H112.247V98.0574Z" fill="black"/>
<path d="M119.341 98.0574H115.794V101.605H119.341V98.0574Z" fill="black"/>
<path d="M122.889 98.0574H119.341V101.605H122.889V98.0574Z" fill="black"/>
<path d="M133.53 98.0574H129.983V101.605H133.53V98.0574Z" fill="black"/>
<path d="M16.4696 101.605H12.9223V105.152H16.4696V101.605Z" fill="black"/>
<path d="M27.1115 101.605H23.5642V105.152H27.1115V101.605Z" fill="black"/>
<path d="M34.2061 101.605H30.6588V105.152H34.2061V101.605Z" fill="black"/>
<path d="M59.0372 101.605H55.4899V105.152H59.0372V101.605Z" fill="black"/>
<path d="M69.6791 101.605H66.1318V105.152H69.6791V101.605Z" fill="black"/>
<path d="M73.2264 101.605H69.6791V105.152H73.2264L73.2264 101.605Z" fill="black"/>
<path d="M87.4155 101.605H83.8682V105.152H87.4155V101.605Z" fill="black"/>
<path d="M98.0574 101.605H94.5101V105.152H98.0574V101.605Z" fill="black"/>
<path d="M105.152 101.605H101.605V105.152H105.152V101.605Z" fill="black"/>
<path d="M108.699 101.605H105.152V105.152H108.699V101.605Z" fill="black"/>
<path d="M122.889 101.605H119.341V105.152H122.889V101.605Z" fill="black"/>
<path d="M133.53 101.605H129.983V105.152H133.53V101.605Z" fill="black"/>
<path d="M137.078 101.605H133.53V105.152H137.078V101.605Z" fill="black"/>
<path d="M41.3007 105.152H37.7534V108.699H41.3007V105.152Z" fill="black"/>
<path d="M44.848 105.152H41.3007V108.699H44.848V105.152Z" fill="black"/>
<path d="M48.3953 105.152H44.848V108.699H48.3953V105.152Z" fill="black"/>
<path d="M51.9426 105.152H48.3953V108.699H51.9426V105.152Z" fill="black"/>
<path d="M55.4899 105.152H51.9426V108.699H55.4899L55.4899 105.152Z" fill="black"/>
<path d="M59.0372 105.152H55.4899L55.4899 108.699H59.0372V105.152Z" fill="black"/>
<path d="M62.5845 105.152H59.0372V108.699H62.5845V105.152Z" fill="black"/>
<path d="M69.6791 105.152H66.1318V108.699H69.6791V105.152Z" fill="black"/>
<path d="M73.2264 105.152H69.6791V108.699H73.2264V105.152Z" fill="black"/>
<path d="M76.7736 105.152H73.2264V108.699H76.7736V105.152Z" fill="black"/>
<path d="M83.8682 105.152H80.321V108.699H83.8682V105.152Z" fill="black"/>
<path d="M87.4155 105.152H83.8682V108.699H87.4155V105.152Z" fill="black"/>
<path d="M90.9628 105.152H87.4155V108.699H90.9628V105.152Z" fill="black"/>
<path d="M94.5101 105.152H90.9628V108.699H94.5101V105.152Z" fill="black"/>
<path d="M101.605 105.152H98.0574V108.699H101.605V105.152Z" fill="black"/>
<path d="M105.152 105.152H101.605V108.699H105.152V105.152Z" fill="black"/>
<path d="M112.247 105.152H108.699V108.699H112.247V105.152Z" fill="black"/>
<path d="M126.436 105.152H122.889V108.699H126.436V105.152Z" fill="black"/>
<path d="M129.983 105.152H126.436V108.699H129.983V105.152Z" fill="black"/>
<path d="M133.53 105.152H129.983V108.699H133.53V105.152Z" fill="black"/>
<path d="M137.078 105.152H133.53V108.699H137.078V105.152Z" fill="black"/>
<path d="M140.625 105.152H137.078V108.699H140.625V105.152Z" fill="black"/>
<path d="M12.9223 108.699H9.375V112.247H12.9223V108.699Z" fill="black"/>
<path d="M16.4696 108.699H12.9223V112.247H16.4696V108.699Z" fill="black"/>
<path d="M27.1115 108.699H23.5642V112.247H27.1115V108.699Z" fill="black"/>
<path d="M30.6588 108.699H27.1115V112.247H30.6588V108.699Z" fill="black"/>
<path d="M34.2061 108.699H30.6588V112.247H34.2061V108.699Z" fill="black"/>
<path d="M44.848 108.699H41.3007V112.247H44.848V108.699Z" fill="black"/>
<path d="M51.9426 108.699H48.3953V112.247H51.9426V108.699Z" fill="black"/>
<path d="M59.0372 108.699H55.4899L55.4899 112.247H59.0372V108.699Z" fill="black"/>
<path d="M66.1318 108.699H62.5845L62.5845 112.247H66.1318L66.1318 108.699Z" fill="black"/>
<path d="M69.6791 108.699H66.1318L66.1318 112.247H69.6791V108.699Z" fill="black"/>
<path d="M73.2264 108.699H69.6791V112.247H73.2264V108.699Z" fill="black"/>
<path d="M76.7736 108.699H73.2264V112.247H76.7736V108.699Z" fill="black"/>
<path d="M80.321 108.699H76.7736V112.247H80.321V108.699Z" fill="black"/>
<path d="M83.8682 108.699H80.321V112.247H83.8682V108.699Z" fill="black"/>
<path d="M108.699 108.699H105.152V112.247H108.699V108.699Z" fill="black"/>
<path d="M112.247 108.699H108.699V112.247H112.247V108.699Z" fill="black"/>
<path d="M115.794 108.699H112.247V112.247H115.794V108.699Z" fill="black"/>
<path d="M119.341 108.699H115.794V112.247H119.341V108.699Z" fill="black"/>
<path d="M122.889 108.699H119.341V112.247H122.889V108.699Z" fill="black"/>
<path d="M126.436 108.699H122.889V112.247H126.436V108.699Z" fill="black"/>
<path d="M140.625 108.699H137.078V112.247H140.625V108.699Z" fill="black"/>
<path d="M41.3007 112.247H37.7534V115.794H41.3007V112.247Z" fill="black"/>
<path d="M48.3953 112.247H44.848V115.794H48.3953V112.247Z" fill="black"/>
<path d="M59.0372 112.247H55.4899V115.794H59.0372V112.247Z" fill="black"/>
<path d="M62.5845 112.247H59.0372V115.794H62.5845L62.5845 112.247Z" fill="black"/>
<path d="M66.1318 112.247H62.5845L62.5845 115.794H66.1318V112.247Z" fill="black"/>
<path d="M73.2264 112.247H69.6791L69.6791 115.794H73.2264V112.247Z" fill="black"/>
<path d="M76.7736 112.247H73.2264V115.794H76.7736V112.247Z" fill="black"/>
<path d="M83.8682 112.247H80.321V115.794H83.8682V112.247Z" fill="black"/>
<path d="M87.4155 112.247H83.8682V115.794H87.4155V112.247Z" fill="black"/>
<path d="M90.9628 112.247H87.4155V115.794H90.9628V112.247Z" fill="black"/>
<path d="M112.247 112.247H108.699V115.794H112.247V112.247Z" fill="black"/>
<path d="M126.436 112.247H122.889V115.794H126.436V112.247Z" fill="black"/>
<path d="M129.983 112.247H126.436V115.794H129.983V112.247Z" fill="black"/>
<path d="M140.625 112.247H137.078V115.794H140.625V112.247Z" fill="black"/>
<path d="M12.9223 115.794H9.375V119.341H12.9223V115.794Z" fill="black"/>
<path d="M16.4696 115.794H12.9223V119.341H16.4696V115.794Z" fill="black"/>
<path d="M20.0169 115.794H16.4696V119.341H20.0169V115.794Z" fill="black"/>
<path d="M23.5642 115.794H20.0169V119.341H23.5642V115.794Z" fill="black"/>
<path d="M27.1115 115.794H23.5642V119.341H27.1115V115.794Z" fill="black"/>
<path d="M30.6588 115.794H27.1115V119.341H30.6588V115.794Z" fill="black"/>
<path d="M34.2061 115.794H30.6588V119.341H34.2061V115.794Z" fill="black"/>
<path d="M48.3953 115.794H44.848V119.341H48.3953V115.794Z" fill="black"/>
<path d="M51.9426 115.794H48.3953V119.341H51.9426V115.794Z" fill="black"/>
<path d="M55.4899 115.794H51.9426V119.341H55.4899L55.4899 115.794Z" fill="black"/>
<path d="M69.6791 115.794H66.1318L66.1318 119.341H69.6791L69.6791 115.794Z" fill="black"/>
<path d="M76.7736 115.794H73.2264L73.2264 119.341H76.7736V115.794Z" fill="black"/>
<path d="M80.321 115.794H76.7736V119.341H80.321V115.794Z" fill="black"/>
<path d="M83.8682 115.794H80.321V119.341H83.8682V115.794Z" fill="black"/>
<path d="M94.5101 115.794H90.9628V119.341H94.5101V115.794Z" fill="black"/>
<path d="M98.0574 115.794H94.5101V119.341H98.0574V115.794Z" fill="black"/>
<path d="M105.152 115.794H101.605V119.341H105.152V115.794Z" fill="black"/>
<path d="M108.699 115.794H105.152V119.341H108.699V115.794Z" fill="black"/>
<path d="M112.247 115.794H108.699V119.341H112.247V115.794Z" fill="black"/>
<path d="M119.341 115.794H115.794V119.341H119.341V115.794Z" fill="black"/>
<path d="M126.436 115.794H122.889V119.341H126.436V115.794Z" fill="black"/>
<path d="M129.983 115.794H126.436V119.341H129.983V115.794Z" fill="black"/>
<path d="M137.078 115.794H133.53V119.341H137.078V115.794Z" fill="black"/>
<path d="M140.625 115.794H137.078V119.341H140.625V115.794Z" fill="black"/>
<path d="M12.9223 119.341H9.375V122.889H12.9223V119.341Z" fill="black"/>
<path d="M34.2061 119.341H30.6588V122.889H34.2061V119.341Z" fill="black"/>
<path d="M48.3953 119.341H44.848V122.889H48.3953V119.341Z" fill="black"/>
<path d="M51.9426 119.341H48.3953V122.889H51.9426V119.341Z" fill="black"/>
<path d="M55.4899 119.341H51.9426V122.889H55.4899V119.341Z" fill="black"/>
<path d="M66.1318 119.341H62.5845V122.889H66.1318L66.1318 119.341Z" fill="black"/>
<path d="M73.2264 119.341H69.6791L69.6791 122.889H73.2264L73.2264 119.341Z" fill="black"/>
<path d="M76.7736 119.341H73.2264L73.2264 122.889H76.7736V119.341Z" fill="black"/>
<path d="M83.8682 119.341H80.321V122.889H83.8682V119.341Z" fill="black"/>
<path d="M90.9628 119.341H87.4155V122.889H90.9628V119.341Z" fill="black"/>
<path d="M94.5101 119.341H90.9628V122.889H94.5101V119.341Z" fill="black"/>
<path d="M98.0574 119.341H94.5101V122.889H98.0574V119.341Z" fill="black"/>
<path d="M112.247 119.341H108.699V122.889H112.247V119.341Z" fill="black"/>
<path d="M126.436 119.341H122.889V122.889H126.436V119.341Z" fill="black"/>
<path d="M140.625 119.341H137.078V122.889H140.625V119.341Z" fill="black"/>
<path d="M12.9223 122.889H9.375V126.436H12.9223V122.889Z" fill="black"/>
<path d="M20.0169 122.889H16.4696V126.436H20.0169V122.889Z" fill="black"/>
<path d="M23.5642 122.889H20.0169V126.436H23.5642V122.889Z" fill="black"/>
<path d="M27.1115 122.889H23.5642V126.436H27.1115V122.889Z" fill="black"/>
<path d="M34.2061 122.889H30.6588V126.436H34.2061V122.889Z" fill="black"/>
<path d="M41.3007 122.889H37.7534V126.436H41.3007V122.889Z" fill="black"/>
<path d="M44.848 122.889H41.3007V126.436H44.848V122.889Z" fill="black"/>
<path d="M59.0372 122.889H55.4899L55.4899 126.436H59.0372V122.889Z" fill="black"/>
<path d="M62.5845 122.889H59.0372V126.436H62.5845L62.5845 122.889Z" fill="black"/>
<path d="M83.8682 122.889H80.321V126.436H83.8682V122.889Z" fill="black"/>
<path d="M87.4155 122.889H83.8682V126.436H87.4155V122.889Z" fill="black"/>
<path d="M94.5101 122.889H90.9628V126.436H94.5101V122.889Z" fill="black"/>
<path d="M101.605 122.889H98.0574V126.436H101.605V122.889Z" fill="black"/>
<path d="M112.247 122.889H108.699V126.436H112.247V122.889Z" fill="black"/>
<path d="M115.794 122.889H112.247V126.436H115.794V122.889Z" fill="black"/>
<path d="M119.341 122.889H115.794V126.436H119.341V122.889Z" fill="black"/>
<path d="M122.889 122.889H119.341V126.436H122.889V122.889Z" fill="black"/>
<path d="M126.436 122.889H122.889V126.436H126.436V122.889Z" fill="black"/>
<path d="M133.53 122.889H129.983V126.436H133.53V122.889Z" fill="black"/>
<path d="M137.078 122.889H133.53V126.436H137.078V122.889Z" fill="black"/>
<path d="M12.9223 126.436H9.375V129.983H12.9223V126.436Z" fill="black"/>
<path d="M20.0169 126.436H16.4696V129.983H20.0169V126.436Z" fill="black"/>
<path d="M23.5642 126.436H20.0169V129.983H23.5642V126.436Z" fill="black"/>
<path d="M27.1115 126.436H23.5642V129.983H27.1115V126.436Z" fill="black"/>
<path d="M34.2061 126.436H30.6588V129.983H34.2061V126.436Z" fill="black"/>
<path d="M51.9426 126.436H48.3953V129.983H51.9426V126.436Z" fill="black"/>
<path d="M55.4899 126.436H51.9426V129.983H55.4899L55.4899 126.436Z" fill="black"/>
<path d="M59.0372 126.436H55.4899L55.4899 129.983H59.0372V126.436Z" fill="black"/>
<path d="M62.5845 126.436H59.0372V129.983H62.5845V126.436Z" fill="black"/>
<path d="M66.1318 126.436H62.5845V129.983H66.1318V126.436Z" fill="black"/>
<path d="M76.7736 126.436H73.2264V129.983H76.7736V126.436Z" fill="black"/>
<path d="M80.321 126.436H76.7736V129.983H80.321V126.436Z" fill="black"/>
<path d="M83.8682 126.436H80.321V129.983H83.8682V126.436Z" fill="black"/>
<path d="M90.9628 126.436H87.4155V129.983H90.9628V126.436Z" fill="black"/>
<path d="M94.5101 126.436H90.9628V129.983H94.5101V126.436Z" fill="black"/>
<path d="M108.699 126.436H105.152V129.983H108.699V126.436Z" fill="black"/>
<path d="M133.53 126.436H129.983V129.983H133.53V126.436Z" fill="black"/>
<path d="M137.078 126.436H133.53V129.983H137.078V126.436Z" fill="black"/>
<path d="M140.625 126.436H137.078V129.983H140.625V126.436Z" fill="black"/>
<path d="M12.9223 129.983H9.375V133.53H12.9223V129.983Z" fill="black"/>
<path d="M20.0169 129.983H16.4696V133.53H20.0169V129.983Z" fill="black"/>
<path d="M23.5642 129.983H20.0169V133.53H23.5642V129.983Z" fill="black"/>
<path d="M27.1115 129.983H23.5642V133.53H27.1115V129.983Z" fill="black"/>
<path d="M34.2061 129.983H30.6588V133.53H34.2061V129.983Z" fill="black"/>
<path d="M41.3007 129.983H37.7534V133.53H41.3007V129.983Z" fill="black"/>
<path d="M44.848 129.983H41.3007V133.53H44.848V129.983Z" fill="black"/>
<path d="M48.3953 129.983H44.848V133.53H48.3953V129.983Z" fill="black"/>
<path d="M51.9426 129.983H48.3953V133.53H51.9426V129.983Z" fill="black"/>
<path d="M62.5845 129.983H59.0372V133.53H62.5845V129.983Z" fill="black"/>
<path d="M66.1318 129.983H62.5845V133.53H66.1318V129.983Z" fill="black"/>
<path d="M69.6791 129.983H66.1318V133.53H69.6791V129.983Z" fill="black"/>
<path d="M76.7736 129.983H73.2264V133.53H76.7736V129.983Z" fill="black"/>
<path d="M87.4155 129.983H83.8682V133.53H87.4155V129.983Z" fill="black"/>
<path d="M94.5101 129.983H90.9628V133.53H94.5101V129.983Z" fill="black"/>
<path d="M105.152 129.983H101.605V133.53H105.152V129.983Z" fill="black"/>
<path d="M108.699 129.983H105.152V133.53H108.699V129.983Z" fill="black"/>
<path d="M112.247 129.983H108.699V133.53H112.247V129.983Z" fill="black"/>
<path d="M115.794 129.983H112.247V133.53H115.794V129.983Z" fill="black"/>
<path d="M129.983 129.983H126.436V133.53H129.983V129.983Z" fill="black"/>
<path d="M133.53 129.983H129.983V133.53H133.53V129.983Z" fill="black"/>
<path d="M137.078 129.983H133.53V133.53H137.078V129.983Z" fill="black"/>
<path d="M12.9223 133.53H9.375V137.078H12.9223V133.53Z" fill="black"/>
<path d="M34.2061 133.53H30.6588V137.078H34.2061V133.53Z" fill="black"/>
<path d="M41.3007 133.53H37.7534V137.078H41.3007V133.53Z" fill="black"/>
<path d="M44.848 133.53H41.3007V137.078H44.848V133.53Z" fill="black"/>
<path d="M51.9426 133.53H48.3953V137.078H51.9426V133.53Z" fill="black"/>
<path d="M59.0372 133.53H55.4899V137.078H59.0372V133.53Z" fill="black"/>
<path d="M62.5845 133.53H59.0372V137.078H62.5845V133.53Z" fill="black"/>
<path d="M66.1318 133.53H62.5845V137.078H66.1318V133.53Z" fill="black"/>
<path d="M90.9628 133.53H87.4155V137.078H90.9628V133.53Z" fill="black"/>
<path d="M94.5101 133.53H90.9628V137.078H94.5101V133.53Z" fill="black"/>
<path d="M98.0574 133.53H94.5101V137.078H98.0574V133.53Z" fill="black"/>
<path d="M105.152 133.53H101.605V137.078H105.152V133.53Z" fill="black"/>
<path d="M112.247 133.53H108.699V137.078H112.247V133.53Z" fill="black"/>
<path d="M122.889 133.53H119.341V137.078H122.889V133.53Z" fill="black"/>
<path d="M126.436 133.53H122.889V137.078H126.436V133.53Z" fill="black"/>
<path d="M137.078 133.53H133.53V137.078H137.078V133.53Z" fill="black"/>
<path d="M12.9223 137.078H9.375V140.625H12.9223V137.078Z" fill="black"/>
<path d="M16.4696 137.078H12.9223V140.625H16.4696V137.078Z" fill="black"/>
<path d="M20.0169 137.078H16.4696V140.625H20.0169V137.078Z" fill="black"/>
<path d="M23.5642 137.078H20.0169V140.625H23.5642V137.078Z" fill="black"/>
<path d="M27.1115 137.078H23.5642V140.625H27.1115V137.078Z" fill="black"/>
<path d="M30.6588 137.078H27.1115V140.625H30.6588V137.078Z" fill="black"/>
<path d="M34.2061 137.078H30.6588V140.625H34.2061V137.078Z" fill="black"/>
<path d="M41.3007 137.078H37.7534V140.625H41.3007V137.078Z" fill="black"/>
<path d="M48.3953 137.078H44.848V140.625H48.3953V137.078Z" fill="black"/>
<path d="M51.9426 137.078H48.3953V140.625H51.9426V137.078Z" fill="black"/>
<path d="M55.4899 137.078H51.9426V140.625H55.4899L55.4899 137.078Z" fill="black"/>
<path d="M62.5845 137.078H59.0372V140.625H62.5845V137.078Z" fill="black"/>
<path d="M66.1318 137.078H62.5845V140.625H66.1318V137.078Z" fill="black"/>
<path d="M76.7736 137.078H73.2264V140.625H76.7736V137.078Z" fill="black"/>
<path d="M80.321 137.078H76.7736V140.625H80.321V137.078Z" fill="black"/>
<path d="M90.9628 137.078H87.4155V140.625H90.9628V137.078Z" fill="black"/>
<path d="M98.0574 137.078H94.5101V140.625H98.0574V137.078Z" fill="black"/>
<path d="M105.152 137.078H101.605V140.625H105.152V137.078Z" fill="black"/>
<path d="M108.699 137.078H105.152V140.625H108.699V137.078Z" fill="black"/>
<path d="M112.247 137.078H108.699V140.625H112.247V137.078Z" fill="black"/>
<path d="M119.341 137.078H115.794V140.625H119.341V137.078Z" fill="black"/>
<path d="M122.889 137.078H119.341V140.625H122.889V137.078Z" fill="black"/>
<path d="M126.436 137.078H122.889V140.625H126.436V137.078Z" fill="black"/>
<path d="M129.983 137.078H126.436V140.625H129.983V137.078Z" fill="black"/>
<path d="M133.53 137.078H129.983V140.625H133.53V137.078Z" fill="black"/>
<path d="M137.078 137.078H133.53V140.625H137.078V137.078Z" fill="black"/>
<path d="M140.625 137.078H137.078V140.625H140.625V137.078Z" fill="black"/>
</g>
<defs>
<clipPath id="clip0_230_4538">
<rect width="150" height="150" fill="white"/>
</clipPath>
</defs>
</svg>
