<svg width="63" height="31" viewBox="0 0 63 31" fill="none" xmlns="http://www.w3.org/2000/svg">
<path d="M7.232 30.42C5.02 30.42 3.326 29.79 2.15 28.53C1.002 27.27 0.428 25.492 0.428 23.196V7.404C0.428 5.108 1.002 3.33 2.15 2.07C3.326 0.809999 5.02 0.179998 7.232 0.179998C9.444 0.179998 11.124 0.809999 12.272 2.07C13.448 3.33 14.036 5.108 14.036 7.404V10.512H9.668V7.11C9.668 5.29 8.898 4.38 7.358 4.38C5.818 4.38 5.048 5.29 5.048 7.11V23.532C5.048 25.324 5.818 26.22 7.358 26.22C8.898 26.22 9.668 25.324 9.668 23.532V19.038H14.036V23.196C14.036 25.492 13.448 27.27 12.272 28.53C11.124 29.79 9.444 30.42 7.232 30.42ZM23.5602 30.42C21.2922 30.42 19.5562 29.776 18.3522 28.488C17.1482 27.2 16.5462 25.38 16.5462 23.028V7.572C16.5462 5.22 17.1482 3.4 18.3522 2.112C19.5562 0.823998 21.2922 0.179998 23.5602 0.179998C25.8282 0.179998 27.5642 0.823998 28.7682 2.112C29.9722 3.4 30.5742 5.22 30.5742 7.572V23.028C30.5742 25.38 29.9722 27.2 28.7682 28.488C27.5642 29.776 25.8282 30.42 23.5602 30.42ZM23.5602 26.22C25.1562 26.22 25.9542 25.254 25.9542 23.322V7.278C25.9542 5.346 25.1562 4.38 23.5602 4.38C21.9642 4.38 21.1662 5.346 21.1662 7.278V23.322C21.1662 25.254 21.9642 26.22 23.5602 26.22Z" fill="#FFE923"/>
<path d="M37.1865 0.599998H43.4445L48.2325 30H43.6125L42.7725 24.162V24.246H37.5225L36.6825 30H32.3985L37.1865 0.599998ZM42.2265 20.256L40.1685 5.724H40.0845L38.0685 20.256H42.2265ZM50.474 0.599998H55.094V25.8H62.696V30H50.474V0.599998Z" fill="#F71212"/>
</svg>
