<svg width="16" height="16" viewBox="0 0 16 16" fill="none" xmlns="http://www.w3.org/2000/svg">
<path d="M8.00016 10.6663C9.4729 10.6663 10.6668 9.47241 10.6668 7.99967C10.6668 6.52691 9.4729 5.33301 8.00016 5.33301C6.5274 5.33301 5.3335 6.52691 5.3335 7.99967C5.3335 9.47241 6.5274 10.6663 8.00016 10.6663Z" stroke="#1F1F1F" stroke-linecap="round" stroke-linejoin="round"/>
<path d="M2 10.6667V5.33333C2 3.49239 3.49239 2 5.33333 2H10.6667C12.5076 2 14 3.49239 14 5.33333V10.6667C14 12.5076 12.5076 14 10.6667 14H5.33333C3.49239 14 2 12.5076 2 10.6667Z" stroke="#1F1F1F"/>
<path d="M11.6665 4.34041L11.6732 4.33301" stroke="#1F1F1F" stroke-linecap="round" stroke-linejoin="round"/>
</svg>
