<svg width="81" height="31" viewBox="0 0 81 31" fill="none" xmlns="http://www.w3.org/2000/svg">
<path d="M7.232 30.42C5.02 30.42 3.326 29.79 2.15 28.53C1.002 27.27 0.428 25.492 0.428 23.196V7.404C0.428 5.108 1.002 3.33 2.15 2.07C3.326 0.809999 5.02 0.179998 7.232 0.179998C9.444 0.179998 11.124 0.809999 12.272 2.07C13.448 3.33 14.036 5.108 14.036 7.404V10.512H9.668V7.11C9.668 5.29 8.898 4.38 7.358 4.38C5.818 4.38 5.048 5.29 5.048 7.11V23.532C5.048 25.324 5.818 26.22 7.358 26.22C8.898 26.22 9.668 25.324 9.668 23.532V19.038H14.036V23.196C14.036 25.492 13.448 27.27 12.272 28.53C11.124 29.79 9.444 30.42 7.232 30.42ZM23.5602 30.42C21.2922 30.42 19.5562 29.776 18.3522 28.488C17.1482 27.2 16.5462 25.38 16.5462 23.028V7.572C16.5462 5.22 17.1482 3.4 18.3522 2.112C19.5562 0.823998 21.2922 0.179998 23.5602 0.179998C25.8282 0.179998 27.5642 0.823998 28.7682 2.112C29.9722 3.4 30.5742 5.22 30.5742 7.572V23.028C30.5742 25.38 29.9722 27.2 28.7682 28.488C27.5642 29.776 25.8282 30.42 23.5602 30.42ZM23.5602 26.22C25.1562 26.22 25.9542 25.254 25.9542 23.322V7.278C25.9542 5.346 25.1562 4.38 23.5602 4.38C21.9642 4.38 21.1662 5.346 21.1662 7.278V23.322C21.1662 25.254 21.9642 26.22 23.5602 26.22ZM33.6986 0.599998H40.5026C42.7986 0.599998 44.5206 1.216 45.6686 2.448C46.8166 3.68 47.3906 5.486 47.3906 7.866V10.764C47.3906 13.144 46.8166 14.95 45.6686 16.182C44.5206 17.414 42.7986 18.03 40.5026 18.03H38.3186V30H33.6986V0.599998ZM40.5026 13.83C41.2586 13.83 41.8186 13.62 42.1826 13.2C42.5746 12.78 42.7706 12.066 42.7706 11.058V7.572C42.7706 6.564 42.5746 5.85 42.1826 5.43C41.8186 5.01 41.2586 4.8 40.5026 4.8H38.3186V13.83H40.5026Z" fill="#2A59BF"/>
<path d="M49.8157 26.808C49.8157 24.708 50.1517 22.916 50.8237 21.432C51.4957 19.92 52.6997 18.254 54.4357 16.434C56.1437 14.614 57.3197 13.06 57.9637 11.772C58.6357 10.484 58.9717 9.14 58.9717 7.74C58.9717 6.48 58.7617 5.612 58.3417 5.136C57.9497 4.632 57.3617 4.38 56.5777 4.38C54.9817 4.38 54.1837 5.346 54.1837 7.278V10.428H49.8157V7.572C49.8157 5.192 50.4037 3.372 51.5797 2.112C52.7557 0.823998 54.4637 0.179998 56.7037 0.179998C58.9437 0.179998 60.6517 0.823998 61.8277 2.112C63.0037 3.372 63.5917 5.192 63.5917 7.572C63.5917 9.364 63.1577 11.114 62.2897 12.822C61.4497 14.53 59.9797 16.49 57.8797 18.702C56.5077 20.158 55.5837 21.348 55.1077 22.272C54.6317 23.168 54.3937 24.134 54.3937 25.17V25.8H63.1717V30H49.8157V26.808ZM73.5201 30.42C71.2521 30.42 69.5161 29.776 68.3121 28.488C67.1081 27.2 66.5061 25.38 66.5061 23.028V7.824C66.5061 2.728 68.8581 0.179998 73.5621 0.179998C75.8021 0.179998 77.5101 0.823998 78.6861 2.112C79.8621 3.372 80.4501 5.192 80.4501 7.572V8.118H76.0821V7.278C76.0821 5.346 75.2841 4.38 73.6881 4.38C72.8201 4.38 72.1761 4.646 71.7561 5.178C71.3361 5.71 71.1261 6.648 71.1261 7.992V13.62H71.2101C72.0221 11.912 73.4221 11.058 75.4101 11.058C77.0901 11.058 78.3641 11.632 79.2321 12.78C80.1001 13.928 80.5341 15.594 80.5341 17.778V23.028C80.5341 25.38 79.9321 27.2 78.7281 28.488C77.5241 29.776 75.7881 30.42 73.5201 30.42ZM73.5201 26.22C75.1161 26.22 75.9141 25.268 75.9141 23.364V18.156C75.9141 16.224 75.1161 15.258 73.5201 15.258C71.9241 15.258 71.1261 16.224 71.1261 18.156V23.364C71.1261 25.268 71.9241 26.22 73.5201 26.22Z" fill="#5FBE43"/>
</svg>
