<svg width="69" height="30" viewBox="0 0 69 30" fill="none" xmlns="http://www.w3.org/2000/svg">
<path d="M0.722 0.599998H7.694C10.074 0.599998 11.81 1.16 12.902 2.28C13.994 3.372 14.54 5.066 14.54 7.362V8.538C14.54 10.05 14.288 11.282 13.784 12.234C13.308 13.186 12.566 13.872 11.558 14.292V14.376C13.854 15.16 15.002 17.204 15.002 20.508V23.028C15.002 25.296 14.4 27.032 13.196 28.236C12.02 29.412 10.284 30 7.988 30H0.722V0.599998ZM7.148 12.57C8.072 12.57 8.758 12.332 9.206 11.856C9.682 11.38 9.92 10.582 9.92 9.462V7.824C9.92 6.76 9.724 5.99 9.332 5.514C8.968 5.038 8.38 4.8 7.568 4.8H5.342V12.57H7.148ZM7.988 25.8C8.8 25.8 9.402 25.59 9.794 25.17C10.186 24.722 10.382 23.966 10.382 22.902V20.34C10.382 18.996 10.144 18.072 9.668 17.568C9.22 17.036 8.464 16.77 7.4 16.77H5.342V25.8H7.988ZM17.7025 0.599998H30.3025V4.8H22.3225V12.57H28.6645V16.77H22.3225V25.8H30.3025V30H17.7025V0.599998ZM36.5303 0.599998H42.7883L47.5763 30H42.9563L42.1163 24.162V24.246H36.8663L36.0263 30H31.7423L36.5303 0.599998ZM41.5703 20.256L39.5123 5.724H39.4283L37.4123 20.256H41.5703ZM49.8177 0.599998H56.4117L59.3517 21.642H59.4357L62.3757 0.599998H68.9697V30H64.6017V7.74H64.5177L61.1577 30H57.2937L53.9337 7.74H53.8497V30H49.8177V0.599998Z" fill="#2A59BF"/>
</svg>
